<?xml version="1.0" encoding="UTF-8"?>
<svg version="1.1" xmlns="http://www.w3.org/2000/svg" width="1080" height="1080">
<path d="M0 0 C4.28801077 3.50837245 4.91841913 8.4243949 5.92578125 13.6171875 C8.58119769 27.02832008 11.8949911 40.1623378 16.0625 53.1875 C16.39072754 54.21367432 16.71895508 55.23984863 17.05712891 56.29711914 C19.12843819 62.64186108 21.47249965 68.8249269 24 75 C24.81750731 77.12307867 25.63073359 79.2478166 26.4375 81.375 C31.15535066 93.63567573 36.50992521 105.34619672 42.55859375 117.00390625 C43.01363281 117.88949219 43.46867188 118.77507812 43.9375 119.6875 C44.33839844 120.45449219 44.73929688 121.22148437 45.15234375 122.01171875 C46 124 46 124 46 127 C46.66 127 47.32 127 48 127 C48.495 128.216875 48.99 129.43375 49.5 130.6875 C52.09645093 136.51589684 55.44682886 141.80602277 58.85839844 147.18603516 C60.02861164 149.0454629 61.17659628 150.9171406 62.3203125 152.79296875 C66.80884379 160.12408462 71.4890351 167.28237084 76.4375 174.3125 C77.19981934 175.39772949 77.19981934 175.39772949 77.97753906 176.50488281 C80.57541357 180.22534925 80.57541357 180.22534925 83.66040039 183.52807617 C85 185 85 185 85 188 C85.66 188 86.32 188 87 188 C87 188.99 87 189.98 87 191 C87.99 191.33 88.98 191.66 90 192 C91.53515625 193.8125 91.53515625 193.8125 93.0625 196 C95.07953853 199.01628184 95.07953853 199.01628184 98 201 C101 205.5 101 205.5 101 208 C101.66 208 102.32 208 103 208 C104.35386936 209.65002828 105.68678142 211.3174387 107 213 C107.66 213.33 108.32 213.66 109 214 C109.433125 214.763125 109.86625 215.52625 110.3125 216.3125 C112.17797654 219.28344413 114.26841876 220.84348849 117 223 C117.33 223.99 117.66 224.98 118 226 C118.66 226.33 119.32 226.66 120 227 C120 227.66 120 228.32 120 229 C120.99 229.33 121.98 229.66 123 230 C123 230.66 123 231.32 123 232 C123.99 232.33 124.98 232.66 126 233 C126 233.66 126 234.32 126 235 C126.99 235.33 127.98 235.66 129 236 C129 236.66 129 237.32 129 238 C129.66 238 130.32 238 131 238 C131 238.66 131 239.32 131 240 C131.99 240 132.98 240 134 240 C134 240.99 134 241.98 134 243 C134.556875 243.2475 135.11375 243.495 135.6875 243.75 C138.42410913 245.22924818 140.67650869 246.93467439 143 249 C143 249.66 143 250.32 143 251 C143.99 251 144.98 251 146 251 C146 251.66 146 252.32 146 253 C146.66 253 147.32 253 148 253 C148.556875 253.7425 149.11375 254.485 149.6875 255.25 C152.51501138 258.61244597 155.12381652 259.98736627 159 262 C159 262.99 159 263.98 159 265 C159.721875 265.2475 160.44375 265.495 161.1875 265.75 C164.27606582 267.12269592 166.51011418 268.72353296 169 271 C169 271.66 169 272.32 169 273 C169.57621094 273.2784375 170.15242188 273.556875 170.74609375 273.84375 C172.93172454 274.96497481 174.98669735 276.18812472 177.0625 277.5 C177.73410156 277.9228125 178.40570312 278.345625 179.09765625 278.78125 C180.74368832 279.83579211 182.37345752 280.91563835 184 282 C184 282.66 184 283.32 184 284 C184.72960937 284.26683594 185.45921875 284.53367187 186.2109375 284.80859375 C188.96354259 285.98442646 191.1775238 287.35094877 193.625 289.0625 C196.17156156 290.83987829 198.03197816 292.01065939 201 293 C201 293.66 201 294.32 201 295 C201.928125 295.268125 202.85625 295.53625 203.8125 295.8125 C207 297 207 297 208.3984375 298.40625 C210.35774037 300.3559953 212.36353853 301.40610937 214.8125 302.6875 C218.62611886 304.7123859 222.38957344 306.79327994 226.11669922 308.97363281 C234.07229461 313.6175266 242.23379642 318.07793214 251 321 C251 321.66 251 322.32 251 323 C251.54269531 323.11730469 252.08539062 323.23460937 252.64453125 323.35546875 C255.44197793 324.12093924 258.0154517 325.18430183 260.6875 326.3125 C261.74453125 326.75722656 262.8015625 327.20195312 263.890625 327.66015625 C266.59002387 328.82333943 269.26535369 330.02601352 271.9375 331.25 C274.9386995 332.60326814 277.7074502 333.57515487 281 334 C281 334.66 281 335.32 281 336 C282.19109375 336.14501953 282.19109375 336.14501953 283.40625 336.29296875 C287.96112381 337.18909066 292.14681017 338.72400091 296.5 340.3125 C303.53788013 342.83046439 310.55100723 345.12339563 317.76171875 347.09765625 C322.10227427 348.30714759 326.38513261 349.68342526 330.671875 351.0703125 C335.07161596 352.29934812 339.51582108 353.13998685 344 354 C345.78416654 354.35520542 347.56802197 354.71197708 349.3515625 355.0703125 C350.65673828 355.33134766 350.65673828 355.33134766 351.98828125 355.59765625 C353.29345703 355.85869141 353.29345703 355.85869141 354.625 356.125 C355.98818359 356.39763672 355.98818359 356.39763672 357.37890625 356.67578125 C359.02685547 357.00537109 360.67480469 357.33496094 362.32275391 357.66455078 C362.87624512 357.77524902 363.42973633 357.88594727 364 358 C364.33 358.99 364.66 359.98 365 361 C360.19948171 362.77519166 355.33137097 363.86016321 350.34448242 364.95361328 C337.72590739 367.72253339 325.50864293 371.15698597 313.26367188 375.25537109 C310.34074743 376.2168594 307.39174344 377.07773941 304.4375 377.9375 C295.96942575 380.52342569 287.74456146 383.80967632 279.50048828 387.02587891 C277.2728101 387.89372073 275.04146247 388.75110181 272.80859375 389.60546875 C265.60408244 392.3898254 258.68846461 395.54828209 251.81640625 399.07421875 C246.55631091 401.75989528 241.19223828 404.23145752 235.83496094 406.71606445 C227.64355222 410.55087925 219.88523641 414.97330649 212.25 419.8125 C210.86470833 420.68249073 209.47928968 421.55227929 208.09375 422.421875 C206.08463113 423.68610357 204.07640023 424.9516699 202.0703125 426.22070312 C200.29981795 427.33940168 198.52533523 428.45150527 196.75 429.5625 C195.73421875 430.20316406 194.7184375 430.84382813 193.671875 431.50390625 C191.36451971 432.79589028 189.5817877 433.55126071 187 434 C187 434.66 187 435.32 187 436 C185.68 436.33 184.36 436.66 183 437 C183 437.66 183 438.32 183 439 C180.734375 440.65625 180.734375 440.65625 177.75 442.5 C176.77546875 443.1084375 175.8009375 443.716875 174.796875 444.34375 C172.56209634 445.66713848 170.34283528 446.88436415 168 448 C168 448.66 168 449.32 168 450 C166.453125 450.8353125 166.453125 450.8353125 164.875 451.6875 C162.24687859 453.17481415 159.9687957 454.77287706 157.6875 456.75 C155 459 155 459 153 459 C153 459.66 153 460.32 153 461 C152.34 461 151.68 461 151 461 C151 461.66 151 462.32 151 463 C149.1015625 464.7265625 149.1015625 464.7265625 146.625 466.625 C145.40683594 467.57246094 145.40683594 467.57246094 144.1640625 468.5390625 C142 470 142 470 140 470 C140 470.66 140 471.32 140 472 C136.53846154 475 136.53846154 475 134 475 C133.67 475.99 133.34 476.98 133 478 C132.34 478 131.68 478 131 478 C131 478.66 131 479.32 131 480 C129.67407227 481.30688477 129.67407227 481.30688477 127.75390625 482.87890625 C122.40621769 487.42850261 117.47762682 492.37211738 112.52709961 497.3425293 C110.94040054 498.93458966 109.34842258 500.5212299 107.75585938 502.10742188 C98.20868785 511.48415821 98.20868785 511.48415821 90 522 C88.68 522 87.36 522 86 522 C85.98541748 521.43531006 85.97083496 520.87062012 85.95581055 520.28881836 C85.25102257 495.30744658 83.37743892 470.44061124 78 446 C77.65308916 444.36860786 77.30673465 442.73709732 76.9609375 441.10546875 C73.69464393 425.85262408 73.69464393 425.85262408 68.78808594 411.06958008 C68.00920876 409.02418298 67.31424439 406.96770747 66.63671875 404.88671875 C62.06210245 391.08686083 56.79049228 377.68277926 49.96923828 364.83691406 C49.04047194 363.07670299 48.14252741 361.30033272 47.24609375 359.5234375 C37.90602532 341.32745105 26.73990435 323.99424684 14 308 C12.79923828 306.48212891 12.79923828 306.48212891 11.57421875 304.93359375 C7.30326218 299.62993612 2.85105092 294.51421899 -1.73828125 289.484375 C-3.29142115 287.77833532 -4.82977977 286.05875728 -6.35546875 284.328125 C-10.35058291 279.80434414 -14.28158765 275.75328255 -19 272 C-20.66666667 270.33333333 -22.33333333 268.66666667 -24 267 C-26.12806574 265.16628354 -28.26807562 263.349534 -30.42578125 261.55078125 C-30.94527344 261.03902344 -31.46476562 260.52726562 -32 260 C-32 259.34 -32 258.68 -32 258 C-32.61875 257.690625 -33.2375 257.38125 -33.875 257.0625 C-35.25 256.375 -36.625 255.6875 -38 255 C-38 254.34 -38 253.68 -38 253 C-38.58160889 252.72542969 -39.16321777 252.45085937 -39.76245117 252.16796875 C-41.94424815 251.02910168 -43.822352 249.77226334 -45.80078125 248.3125 C-46.88431885 247.51900146 -46.88431885 247.51900146 -47.98974609 246.70947266 C-48.75625488 246.14534668 -49.52276367 245.5812207 -50.3125 245 C-56.10485739 240.78067319 -61.91773186 236.60903065 -67.875 232.625 C-68.47812012 232.21991211 -69.08124023 231.81482422 -69.70263672 231.39746094 C-72.6063953 229.47637917 -75.52495651 227.67817123 -78.59765625 226.0390625 C-79.69980469 225.44867188 -80.80195313 224.85828125 -81.9375 224.25 C-83.40509766 223.51523437 -83.40509766 223.51523437 -84.90234375 222.765625 C-87 221 -87 221 -87.56640625 218.14453125 C-86.86707043 214.26201167 -85.5004312 212.47434127 -83 209.4375 C-78.80204426 204.13551495 -75.26279146 198.72761575 -71.82421875 192.91015625 C-70 190 -70 190 -67.92578125 187.42578125 C-66.04760998 185.05997119 -64.78733654 182.84754283 -63.5 180.125 C-61.83513851 176.62654107 -60.02279897 173.26439923 -58.08398438 169.90966797 C-56.13963938 166.48429262 -54.32836247 162.98824104 -52.5 159.5 C-50.33943328 155.37796316 -48.17585759 151.27138184 -45.83203125 147.25 C-44.37193059 144.65980011 -43.20803548 142.27505215 -42.1875 139.5 C-40.52777396 135.19122102 -38.61934047 131.0363044 -36.625 126.875 C-31.88742585 116.91094322 -28.09282955 106.59234862 -24.69921875 96.09765625 C-23.91699126 93.75097377 -23.05410313 91.44183695 -22.1875 89.125 C-16.68698236 74.00907365 -12.47839754 58.6963064 -9 43 C-8.82227051 42.20625977 -8.64454102 41.41251953 -8.46142578 40.59472656 C-6.07800253 29.88386865 -4.08802384 19.12659157 -2.30639648 8.29931641 C-2.14985596 7.36265137 -1.99331543 6.42598633 -1.83203125 5.4609375 C-1.69514893 4.62353027 -1.5582666 3.78612305 -1.41723633 2.92333984 C-1 1 -1 1 0 0 Z " fill="#FEFEFE" transform="translate(511,126)"/>
<path d="M0 0 C0.04487549 1.0108667 0.08975098 2.0217334 0.13598633 3.06323242 C1.28755718 30.6588822 1.28755718 30.6588822 5 58 C5.16628906 58.90057129 5.33257812 59.80114258 5.50390625 60.72900391 C6.00654883 65.21258774 6.00654883 65.21258774 8 69 C8.2814307 70.80788634 8.52333756 72.62193387 8.75 74.4375 C12.13742267 96.95533126 20.52090723 119.5962363 30.13525391 140.14697266 C31.07837882 142.16795462 31.99879487 144.19848908 32.91796875 146.23046875 C33.54857788 147.6123908 34.18006045 148.99391468 34.8125 150.375 C35.1027002 151.01268311 35.39290039 151.65036621 35.69189453 152.30737305 C36.9180916 154.94243076 37.92706544 156.92706544 40 159 C40.93058496 160.79490536 41.82056607 162.61100084 42.6875 164.4375 C45.7169164 170.59927413 49.23827907 176.26627559 53 182 C54.10509823 183.77025214 55.2092549 185.54109238 56.3125 187.3125 C59.19351302 191.83699999 62.21478906 196.24739985 65.3125 200.625 C65.7453833 201.24157471 66.1782666 201.85814941 66.62426758 202.4934082 C68.8465421 205.7546064 68.8465421 205.7546064 72 208 C73 209.66666667 74 211.33333333 75 213 C77.00748004 215.60907014 79.10407841 218.13028888 81.46875 220.42578125 C83.76978053 222.79138151 85.58375242 225.48040378 87.5 228.16015625 C89.05053054 230.24629081 89.05053054 230.24629081 92 232 C92 232.66 92 233.32 92 234 C92.66 234 93.32 234 94 234 C95.48046875 235.5390625 95.48046875 235.5390625 97.1875 237.625 C100.1100663 241.08787267 103.15830902 243.97510908 106.71484375 246.7734375 C107.13894531 247.17820312 107.56304688 247.58296875 108 248 C108 248.66 108 249.32 108 250 C108.556875 250.061875 109.11375 250.12375 109.6875 250.1875 C112.99038567 251.34797334 114.58120525 253.47126004 117 256 C125.16410734 263.426181 125.16410734 263.426181 134 270 C136.78535713 271.93378298 139.56959397 273.86909349 142.34960938 275.81054688 C145.57582316 278.06789616 145.57582316 278.06789616 149 280 C149 280.66 149 281.32 149 282 C149.69609375 282.25136719 150.3921875 282.50273438 151.109375 282.76171875 C154.98392965 284.42149419 158.40735269 286.6478524 161.96386719 288.89575195 C165.99689081 291.42467484 170.08838262 293.66585967 174.390625 295.69921875 C176 297 176 297 176.84765625 299.4375 C177.07490257 303.25989965 175.35146624 305.11105576 173 308 C172.34 308 171.68 308 171 308 C170.731875 308.928125 170.46375 309.85625 170.1875 310.8125 C169.06539813 313.82445764 168.3420038 314.96347496 166 317 C165.67 317.66 165.34 318.32 165 319 C164.34 319 163.68 319 163 319 C162.87625 319.5775 162.7525 320.155 162.625 320.75 C161.99351176 323.02335767 161.11141809 324.9253529 160 327 C159.34 327 158.68 327 158 327 C157.73058594 327.72574219 157.46117187 328.45148438 157.18359375 329.19921875 C156.02169447 331.94866358 154.66012868 334.29613321 153.0625 336.8125 C151.12365815 339.96547097 149.52553305 342.94035152 148.3125 346.4375 C147.05712964 349.84493383 146.40904707 350.61637823 144 353 C143.67 353.99 143.34 354.98 143 356 C142.34 356 141.68 356 141 356 C140.8865625 356.556875 140.773125 357.11375 140.65625 357.6875 C139.65168709 361.22738834 137.85951941 364.31440485 136.15625 367.5625 C135.1279202 369.73033039 134.47688783 371.65891431 134 374 C133.34 374 132.68 374 132 374 C131.6596875 375.423125 131.6596875 375.423125 131.3125 376.875 C130.1207872 381.13733044 128.11108115 384.87995301 126.0234375 388.765625 C124.79178211 391.04498059 124.79178211 391.04498059 125 394 C124.34 394 123.68 394 123 394 C122.34 396.64 121.68 399.28 121 402 C120.34 402 119.68 402 119 402 C118.87625 402.680625 118.7525 403.36125 118.625 404.0625 C117.04376938 411.49428392 114.57571376 418.53342973 111.4375 425.4375 C109.77161944 429.56598661 108.84015398 433.64108347 108 438 C107.34 438 106.68 438 106 438 C105.87882812 438.85464844 105.75765625 439.70929688 105.6328125 440.58984375 C105.46523438 441.69457031 105.29765625 442.79929687 105.125 443.9375 C104.96257812 445.03964844 104.80015625 446.14179687 104.6328125 447.27734375 C104.42398437 448.17582031 104.21515625 449.07429688 104 450 C103.34 450.33 102.68 450.66 102 451 C102.04125 451.680625 102.0825 452.36125 102.125 453.0625 C101.97398258 456.61140943 101.02992963 459.60729062 100 463 C99.64628502 464.66246041 99.30404678 466.32774271 99 468 C98.34 468 97.68 468 97 468 C97.061875 469.485 97.061875 469.485 97.125 471 C97.13955969 474.59624351 96.39769541 477.69716301 95.4375 481.14453125 C94.89242368 483.13851385 94.89242368 483.13851385 95 485.8125 C95 488 95 488 93 491 C92.41999986 493.42440057 91.92742498 495.7989258 91.5 498.25 C91.37326904 498.94931641 91.24653809 499.64863281 91.1159668 500.36914062 C89.84504959 507.54873623 88.88376675 514.76350994 88 522 C87.01 522 86.02 522 85 522 C82.82462997 518.73694495 82.59184568 517.08004006 82.125 513.25 C81.23871518 506.99061343 79.76691581 501.05755609 78.07421875 494.97265625 C76.90610386 490.73837241 75.91920384 486.46816339 74.9375 482.1875 C72.93518581 473.55673572 70.61197208 465.34441133 67.23046875 457.15625 C65.5530764 452.85360549 64.06730232 448.49045648 62.5625 444.125 C59.01849533 433.90096954 55.11861934 424.04409353 50.171875 414.41015625 C49.037329 412.07677331 48.09942156 409.74029116 47.1875 407.3125 C41.79355592 393.52797625 33.49872611 380.7111923 26 368 C25.5472168 367.22688477 25.09443359 366.45376953 24.62792969 365.65722656 C18.51670378 355.25448368 11.89894686 345.50767417 4.51171875 335.97216797 C2.99248628 333.9901977 1.50744433 331.98684357 0.03125 329.97265625 C-6.45574418 321.13762206 -13.32502322 312.7698122 -20.60351562 304.57568359 C-22.44053624 302.50293341 -24.25050857 300.40713112 -26.0625 298.3125 C-27.8010763 296.31875952 -29.53817228 294.47562701 -31.4375 292.625 C-33 291 -33 291 -33 289 C-33.99 288.67 -34.98 288.34 -36 288 C-36 287.34 -36 286.68 -36 286 C-36.66 286 -37.32 286 -38 286 C-38.556875 285.29875 -39.11375 284.5975 -39.6875 283.875 C-42.0866637 280.89225593 -44.6302638 278.70405467 -47.609375 276.33203125 C-48.06828125 275.89246094 -48.5271875 275.45289063 -49 275 C-49 274.34 -49 273.68 -49 273 C-49.57234375 272.7421875 -50.1446875 272.484375 -50.734375 272.21875 C-53.21128995 270.88634058 -55.1341166 269.34943882 -57.25 267.5 C-57.95640625 266.8915625 -58.6628125 266.283125 -59.390625 265.65625 C-61 264 -61 264 -61 262 C-61.56203125 261.7421875 -62.1240625 261.484375 -62.703125 261.21875 C-65.26704579 259.85830223 -67.45226365 258.27211038 -69.75 256.5 C-70.54921875 255.8915625 -71.3484375 255.283125 -72.171875 254.65625 C-72.77515625 254.1096875 -73.3784375 253.563125 -74 253 C-74 252.34 -74 251.68 -74 251 C-74.57419678 250.7313916 -75.14839355 250.4627832 -75.73999023 250.18603516 C-78.06327314 248.96679476 -80.05687052 247.59002605 -82.16015625 246.0234375 C-82.94874023 245.43868652 -83.73732422 244.85393555 -84.54980469 244.25146484 C-85.79358887 243.32261475 -85.79358887 243.32261475 -87.0625 242.375 C-88.7772467 241.10403572 -90.49208993 239.83320167 -92.20703125 238.5625 C-94.42142315 236.91715281 -96.63533572 235.27116309 -98.84912109 233.625 C-100.31352004 232.53820774 -101.78157709 231.45634909 -103.25 230.375 C-104.40242188 229.52035156 -104.40242188 229.52035156 -105.578125 228.6484375 C-107.99086164 227.00621998 -110.47849848 225.57071683 -113.02246094 224.14306641 C-115.20897001 222.87921017 -117.33777909 221.54287673 -119.46875 220.1875 C-132.29610693 212.04408159 -145.43809502 204.83975821 -159 198 C-160.39213157 197.29076582 -161.78408058 196.5811731 -163.17578125 195.87109375 C-174.42456083 190.15806638 -185.78855391 185.19203812 -197.63525391 180.86962891 C-200.21430502 179.92118992 -202.78480003 178.95138668 -205.35546875 177.98046875 C-215.03973124 174.35234674 -224.59579587 171.07680051 -234.6875 168.7890625 C-238 168 -238 168 -240.80078125 167.0546875 C-246.08204872 165.31361031 -251.51025661 164.1315156 -256.91992188 162.85546875 C-258.21833008 162.54029297 -258.21833008 162.54029297 -259.54296875 162.21875 C-260.32696045 162.03248047 -261.11095215 161.84621094 -261.91870117 161.65429688 C-264 161 -264 161 -267 159 C-267 158.34 -267 157.68 -267 157 C-265.27318563 156.49193553 -263.54342021 155.99389533 -261.8125 155.5 C-260.36810547 155.08234375 -260.36810547 155.08234375 -258.89453125 154.65625 C-256.14654124 154.03322392 -253.80401584 153.87697188 -251 154 C-251 153.34 -251 152.68 -251 152 C-250.00097656 151.79503906 -249.00195312 151.59007812 -247.97265625 151.37890625 C-246.68230469 151.10949219 -245.39195312 150.84007812 -244.0625 150.5625 C-242.77472656 150.29566406 -241.48695313 150.02882813 -240.16015625 149.75390625 C-237.15361121 149.32818384 -237.15361121 149.32818384 -236 148 C-234.00784013 147.58059792 -232.01566575 147.16126464 -230.0234375 146.7421875 C-225.41587036 145.61113097 -220.92130704 144.14013419 -216.40991211 142.67675781 C-211.19730066 141 -211.19730066 141 -209 141 C-209 140.34 -209 139.68 -209 139 C-208.06607422 138.83177734 -208.06607422 138.83177734 -207.11328125 138.66015625 C-196.1517199 136.3210783 -186.17923925 131.57262467 -176 127 C-175.35321289 126.71189453 -174.70642578 126.42378906 -174.04003906 126.12695312 C-166.16787824 122.61331405 -158.4578581 118.78203424 -150.765625 114.89453125 C-148.45138614 113.72515173 -146.13100317 112.57927836 -143.796875 111.44921875 C-142.89453125 111.01222656 -141.9921875 110.57523438 -141.0625 110.125 C-140.29035156 109.75632812 -139.51820313 109.38765625 -138.72265625 109.0078125 C-136.82708536 108.10932712 -136.82708536 108.10932712 -136 106 C-134.9275 105.62875 -133.855 105.2575 -132.75 104.875 C-127.88150974 103.18430611 -123.69431999 100.47393563 -119.39355469 97.69287109 C-115.19182289 95 -115.19182289 95 -113 95 C-113 94.34 -113 93.68 -113 93 C-112.39671875 92.68546875 -111.7934375 92.3709375 -111.171875 92.046875 C-110.37265625 91.61890625 -109.5734375 91.1909375 -108.75 90.75 C-107.96109375 90.33234375 -107.1721875 89.9146875 -106.359375 89.484375 C-103.93227464 88.08292431 -103.93227464 88.08292431 -102.0390625 86.01171875 C-99.73622673 83.73976392 -97.50565101 82.51896361 -94.625 81.0625 C-90.21897813 78.75066209 -86.73248348 76.25395995 -83 73 C-82.34 73 -81.68 73 -81 73 C-81 72.34 -81 71.68 -81 71 C-80.401875 70.731875 -79.80375 70.46375 -79.1875 70.1875 C-76.97523157 68.98655428 -75.76257249 67.77108734 -74 66 C-72.66501 64.91350319 -71.30986245 63.8513912 -69.9375 62.8125 C-69.24527344 62.28269531 -68.55304688 61.75289063 -67.83984375 61.20703125 C-66 60 -66 60 -64 60 C-64 59.34 -64 58.68 -64 58 C-61.32307592 54.92649458 -58.49197062 53.04408036 -55 51 C-52.40839871 49.04049659 -50.07804929 47.08027927 -47.8125 44.75 C-46 43 -46 43 -44 43 C-44 42.34 -44 41.68 -44 41 C-42.42578125 39.44921875 -42.42578125 39.44921875 -40.3125 37.6875 C-36.08692116 34.08683071 -32.17640877 30.46256225 -28.6875 26.125 C-26.09254167 22.93246451 -23.0609095 20.3987705 -19.9296875 17.74609375 C-18.12850996 16.1162833 -16.63421396 14.46018027 -15.125 12.5625 C-14.42375 11.716875 -13.7225 10.87125 -13 10 C-12.34 10 -11.68 10 -11 10 C-11 9.34 -11 8.68 -11 8 C-10.34 8 -9.68 8 -9 8 C-8.7525 7.4225 -8.505 6.845 -8.25 6.25 C-6.15415198 2.47747356 -4.46699396 0 0 0 Z " fill="#FEFEFE" transform="translate(471,430)"/>
</svg>
